<svg width="584" height="480" viewBox="0 0 584 480" fill="none" xmlns="http://www.w3.org/2000/svg">
<path d="M0 12C0 5.37257 5.37258 0 12 0H572C578.627 0 584 5.37258 584 12V468C584 474.627 578.627 480 572 480H12C5.37257 480 0 474.627 0 468V12Z" fill="#007BFF" fill-opacity="0.1"/>
<line x1="293" y1="164" x2="293" y2="316" stroke="url(#paint0_linear)" stroke-width="4"/>
<path d="M42 126H542V170C542 172.209 540.209 174 538 174H46C43.7909 174 42 172.209 42 170V126Z" fill="#D9D2F7"/>
<path d="M526.667 146.273L525.727 145.333L522 149.06L518.273 145.333L517.333 146.273L521.06 150L517.333 153.727L518.273 154.667L522 150.94L525.727 154.667L526.667 153.727L522.94 150L526.667 146.273Z" fill="#421BE0"/>
<path d="M167.06 154V151.88H168.9V142.16H167.06V140.04H173.4V142.16H171.54V151.88H173.4V154H167.06ZM176.457 145.58H174.917V143.56H176.457V142.06C176.457 141.14 176.697 140.433 177.177 139.94C177.67 139.447 178.39 139.2 179.337 139.2H181.157V141.24H179.017V143.56H181.157V145.58H179.017V154H176.457V145.58ZM188.936 142.04C188.402 142.04 188.016 141.92 187.776 141.68C187.549 141.44 187.436 141.133 187.436 140.76V140.36C187.436 139.987 187.549 139.68 187.776 139.44C188.016 139.2 188.402 139.08 188.936 139.08C189.456 139.08 189.836 139.2 190.076 139.44C190.316 139.68 190.436 139.987 190.436 140.36V140.76C190.436 141.133 190.316 141.44 190.076 141.68C189.836 141.92 189.456 142.04 188.936 142.04ZM187.656 143.56H190.216V154H187.656V143.56ZM193.183 154V143.56H195.743V145.3H195.843C196.056 144.74 196.39 144.273 196.843 143.9C197.31 143.513 197.95 143.32 198.763 143.32C199.843 143.32 200.67 143.673 201.243 144.38C201.816 145.087 202.103 146.093 202.103 147.4V154H199.543V147.66C199.543 146.913 199.41 146.353 199.143 145.98C198.876 145.607 198.436 145.42 197.823 145.42C197.556 145.42 197.296 145.46 197.043 145.54C196.803 145.607 196.583 145.713 196.383 145.86C196.196 145.993 196.043 146.167 195.923 146.38C195.803 146.58 195.743 146.82 195.743 147.1V154H193.183ZM209.061 154.24C208.288 154.24 207.601 154.113 207.001 153.86C206.401 153.607 205.894 153.24 205.481 152.76C205.081 152.28 204.774 151.707 204.561 151.04C204.348 150.36 204.241 149.6 204.241 148.76C204.241 147.92 204.348 147.167 204.561 146.5C204.774 145.833 205.081 145.267 205.481 144.8C205.894 144.32 206.401 143.953 207.001 143.7C207.601 143.447 208.288 143.32 209.061 143.32C210.114 143.32 210.981 143.553 211.661 144.02C212.354 144.487 212.854 145.133 213.161 145.96L211.061 146.9C210.941 146.46 210.714 146.1 210.381 145.82C210.061 145.527 209.621 145.38 209.061 145.38C208.341 145.38 207.801 145.607 207.441 146.06C207.094 146.513 206.921 147.107 206.921 147.84V149.74C206.921 150.473 207.094 151.067 207.441 151.52C207.801 151.96 208.341 152.18 209.061 152.18C209.674 152.18 210.148 152.027 210.481 151.72C210.814 151.4 211.074 151.007 211.261 150.54L213.221 151.48C212.874 152.4 212.348 153.093 211.641 153.56C210.934 154.013 210.074 154.24 209.061 154.24ZM216.475 142.04C215.942 142.04 215.555 141.92 215.315 141.68C215.088 141.44 214.975 141.133 214.975 140.76V140.36C214.975 139.987 215.088 139.68 215.315 139.44C215.555 139.2 215.942 139.08 216.475 139.08C216.995 139.08 217.375 139.2 217.615 139.44C217.855 139.68 217.975 139.987 217.975 140.36V140.76C217.975 141.133 217.855 141.44 217.615 141.68C217.375 141.92 216.995 142.04 216.475 142.04ZM215.195 143.56H217.755V154H215.195V143.56ZM227.202 152.26H227.102C226.916 152.86 226.562 153.34 226.042 153.7C225.522 154.06 224.916 154.24 224.222 154.24C222.902 154.24 221.889 153.767 221.182 152.82C220.489 151.873 220.142 150.52 220.142 148.76C220.142 147.013 220.489 145.673 221.182 144.74C221.889 143.793 222.902 143.32 224.222 143.32C224.916 143.32 225.522 143.5 226.042 143.86C226.562 144.207 226.916 144.68 227.102 145.28H227.202V139.2H229.762V154H227.202V152.26ZM225.042 152.12C225.656 152.12 226.169 151.973 226.582 151.68C226.996 151.387 227.202 150.967 227.202 150.42V147.1C227.202 146.593 226.996 146.187 226.582 145.88C226.169 145.573 225.656 145.42 225.042 145.42C224.376 145.42 223.836 145.647 223.422 146.1C223.022 146.54 222.822 147.133 222.822 147.88V149.68C222.822 150.427 223.022 151.02 223.422 151.46C223.836 151.9 224.376 152.12 225.042 152.12ZM236.934 154.24C236.161 154.24 235.468 154.113 234.854 153.86C234.254 153.593 233.741 153.227 233.314 152.76C232.901 152.28 232.581 151.707 232.354 151.04C232.128 150.36 232.014 149.6 232.014 148.76C232.014 147.933 232.121 147.187 232.334 146.52C232.561 145.853 232.881 145.287 233.294 144.82C233.708 144.34 234.214 143.973 234.814 143.72C235.414 143.453 236.094 143.32 236.854 143.32C237.668 143.32 238.374 143.46 238.974 143.74C239.574 144.02 240.068 144.4 240.454 144.88C240.841 145.36 241.128 145.92 241.314 146.56C241.514 147.187 241.614 147.86 241.614 148.58V149.42H234.674V149.68C234.674 150.44 234.888 151.053 235.314 151.52C235.741 151.973 236.374 152.2 237.214 152.2C237.854 152.2 238.374 152.067 238.774 151.8C239.188 151.533 239.554 151.193 239.874 150.78L241.254 152.32C240.828 152.92 240.241 153.393 239.494 153.74C238.761 154.073 237.908 154.24 236.934 154.24ZM236.894 145.24C236.214 145.24 235.674 145.467 235.274 145.92C234.874 146.373 234.674 146.96 234.674 147.68V147.84H238.954V147.66C238.954 146.94 238.774 146.36 238.414 145.92C238.068 145.467 237.561 145.24 236.894 145.24ZM243.867 154V143.56H246.427V145.3H246.527C246.74 144.74 247.073 144.273 247.527 143.9C247.993 143.513 248.633 143.32 249.447 143.32C250.527 143.32 251.353 143.673 251.927 144.38C252.5 145.087 252.787 146.093 252.787 147.4V154H250.227V147.66C250.227 146.913 250.093 146.353 249.827 145.98C249.56 145.607 249.12 145.42 248.507 145.42C248.24 145.42 247.98 145.46 247.727 145.54C247.487 145.607 247.267 145.713 247.067 145.86C246.88 145.993 246.727 146.167 246.607 146.38C246.487 146.58 246.427 146.82 246.427 147.1V154H243.867ZM258.885 154C258.005 154 257.331 153.773 256.865 153.32C256.411 152.853 256.185 152.193 256.185 151.34V145.6H254.645V143.56H255.445C255.831 143.56 256.091 143.473 256.225 143.3C256.371 143.113 256.445 142.84 256.445 142.48V140.7H258.745V143.56H260.885V145.6H258.745V151.96H260.725V154H258.885ZM267.832 139.2H270.392V145.3H270.492C270.705 144.74 271.038 144.273 271.492 143.9C271.958 143.513 272.598 143.32 273.412 143.32C274.492 143.32 275.318 143.673 275.892 144.38C276.465 145.087 276.752 146.093 276.752 147.4V154H274.192V147.66C274.192 146.913 274.058 146.353 273.792 145.98C273.525 145.607 273.085 145.42 272.472 145.42C272.205 145.42 271.945 145.46 271.692 145.54C271.452 145.607 271.232 145.713 271.032 145.86C270.845 145.993 270.692 146.167 270.572 146.38C270.452 146.58 270.392 146.82 270.392 147.1V154H267.832V139.2ZM287.269 154C286.709 154 286.263 153.84 285.929 153.52C285.609 153.187 285.409 152.747 285.329 152.2H285.209C285.036 152.88 284.683 153.393 284.149 153.74C283.616 154.073 282.956 154.24 282.169 154.24C281.103 154.24 280.283 153.96 279.709 153.4C279.136 152.84 278.849 152.093 278.849 151.16C278.849 150.08 279.236 149.28 280.009 148.76C280.783 148.227 281.883 147.96 283.309 147.96H285.089V147.2C285.089 146.613 284.936 146.16 284.629 145.84C284.323 145.52 283.829 145.36 283.149 145.36C282.549 145.36 282.063 145.493 281.689 145.76C281.329 146.013 281.023 146.32 280.769 146.68L279.249 145.32C279.636 144.72 280.149 144.24 280.789 143.88C281.429 143.507 282.276 143.32 283.329 143.32C284.743 143.32 285.816 143.64 286.549 144.28C287.283 144.92 287.649 145.84 287.649 147.04V151.96H288.689V154H287.269ZM283.029 152.38C283.603 152.38 284.089 152.253 284.489 152C284.889 151.747 285.089 151.373 285.089 150.88V149.5H283.449C282.116 149.5 281.449 149.927 281.449 150.78V151.12C281.449 151.547 281.583 151.867 281.849 152.08C282.129 152.28 282.523 152.38 283.029 152.38ZM294.181 154.24C293.181 154.24 292.341 154.073 291.661 153.74C290.981 153.393 290.381 152.92 289.861 152.32L291.421 150.8C291.808 151.24 292.228 151.587 292.681 151.84C293.148 152.093 293.681 152.22 294.281 152.22C294.895 152.22 295.335 152.113 295.601 151.9C295.881 151.687 296.021 151.393 296.021 151.02C296.021 150.713 295.921 150.473 295.721 150.3C295.535 150.113 295.208 149.987 294.741 149.92L293.701 149.78C292.568 149.633 291.701 149.313 291.101 148.82C290.515 148.313 290.221 147.58 290.221 146.62C290.221 146.113 290.315 145.66 290.501 145.26C290.688 144.847 290.955 144.5 291.301 144.22C291.648 143.927 292.061 143.707 292.541 143.56C293.035 143.4 293.581 143.32 294.181 143.32C294.688 143.32 295.135 143.36 295.521 143.44C295.921 143.507 296.281 143.613 296.601 143.76C296.921 143.893 297.215 144.067 297.481 144.28C297.748 144.48 298.008 144.707 298.261 144.96L296.761 146.46C296.455 146.14 296.088 145.873 295.661 145.66C295.235 145.447 294.768 145.34 294.261 145.34C293.701 145.34 293.295 145.44 293.041 145.64C292.801 145.84 292.681 146.1 292.681 146.42C292.681 146.767 292.781 147.033 292.981 147.22C293.195 147.393 293.548 147.52 294.041 147.6L295.101 147.74C297.355 148.06 298.481 149.087 298.481 150.82C298.481 151.327 298.375 151.793 298.161 152.22C297.961 152.633 297.675 152.993 297.301 153.3C296.928 153.593 296.475 153.827 295.941 154C295.421 154.16 294.835 154.24 294.181 154.24ZM308.728 154C307.848 154 307.175 153.773 306.708 153.32C306.255 152.853 306.028 152.193 306.028 151.34V145.6H304.488V143.56H305.288C305.675 143.56 305.935 143.473 306.068 143.3C306.215 143.113 306.288 142.84 306.288 142.48V140.7H308.588V143.56H310.728V145.6H308.588V151.96H310.568V154H308.728ZM317.091 154.24C316.317 154.24 315.624 154.113 315.011 153.86C314.411 153.593 313.897 153.227 313.471 152.76C313.057 152.28 312.737 151.707 312.511 151.04C312.284 150.36 312.171 149.6 312.171 148.76C312.171 147.933 312.277 147.187 312.491 146.52C312.717 145.853 313.037 145.287 313.451 144.82C313.864 144.34 314.371 143.973 314.971 143.72C315.571 143.453 316.251 143.32 317.011 143.32C317.824 143.32 318.531 143.46 319.131 143.74C319.731 144.02 320.224 144.4 320.611 144.88C320.997 145.36 321.284 145.92 321.471 146.56C321.671 147.187 321.771 147.86 321.771 148.58V149.42H314.831V149.68C314.831 150.44 315.044 151.053 315.471 151.52C315.897 151.973 316.531 152.2 317.371 152.2C318.011 152.2 318.531 152.067 318.931 151.8C319.344 151.533 319.711 151.193 320.031 150.78L321.411 152.32C320.984 152.92 320.397 153.393 319.651 153.74C318.917 154.073 318.064 154.24 317.091 154.24ZM317.051 145.24C316.371 145.24 315.831 145.467 315.431 145.92C315.031 146.373 314.831 146.96 314.831 147.68V147.84H319.111V147.66C319.111 146.94 318.931 146.36 318.571 145.92C318.224 145.467 317.717 145.24 317.051 145.24ZM322.63 154L326.19 148.7L322.71 143.56H325.63L327.79 147.02H327.87L330.01 143.56H332.73L329.19 148.74L332.75 154H329.83L327.63 150.4H327.55L325.35 154H322.63ZM337.869 154C336.989 154 336.316 153.773 335.849 153.32C335.396 152.853 335.169 152.193 335.169 151.34V145.6H333.629V143.56H334.429C334.816 143.56 335.076 143.473 335.209 143.3C335.356 143.113 335.429 142.84 335.429 142.48V140.7H337.729V143.56H339.869V145.6H337.729V151.96H339.709V154H337.869ZM348.196 144.9C347.649 144.9 347.249 144.773 346.996 144.52C346.756 144.253 346.636 143.927 346.636 143.54V143.16C346.636 142.8 346.689 142.44 346.796 142.08C346.903 141.707 347.043 141.347 347.216 141C347.403 140.653 347.623 140.327 347.876 140.02C348.129 139.713 348.403 139.44 348.696 139.2H350.416C349.989 139.613 349.629 140.02 349.336 140.42C349.043 140.82 348.823 141.267 348.676 141.76C349.063 141.84 349.343 142.007 349.516 142.26C349.689 142.5 349.776 142.78 349.776 143.1V143.54C349.776 143.927 349.649 144.253 349.396 144.52C349.156 144.773 348.756 144.9 348.196 144.9ZM358.55 142.38V154H355.91V142.38H351.95V140.04H362.51V142.38H358.55ZM367.423 154.24C366.649 154.24 365.956 154.113 365.343 153.86C364.743 153.593 364.229 153.227 363.803 152.76C363.389 152.28 363.069 151.707 362.843 151.04C362.616 150.36 362.503 149.6 362.503 148.76C362.503 147.933 362.609 147.187 362.823 146.52C363.049 145.853 363.369 145.287 363.783 144.82C364.196 144.34 364.703 143.973 365.303 143.72C365.903 143.453 366.583 143.32 367.343 143.32C368.156 143.32 368.863 143.46 369.463 143.74C370.063 144.02 370.556 144.4 370.943 144.88C371.329 145.36 371.616 145.92 371.803 146.56C372.003 147.187 372.103 147.86 372.103 148.58V149.42H365.163V149.68C365.163 150.44 365.376 151.053 365.803 151.52C366.229 151.973 366.863 152.2 367.703 152.2C368.343 152.2 368.863 152.067 369.263 151.8C369.676 151.533 370.043 151.193 370.363 150.78L371.743 152.32C371.316 152.92 370.729 153.393 369.983 153.74C369.249 154.073 368.396 154.24 367.423 154.24ZM367.383 145.24C366.703 145.24 366.163 145.467 365.763 145.92C365.363 146.373 365.163 146.96 365.163 147.68V147.84H369.443V147.66C369.443 146.94 369.263 146.36 368.903 145.92C368.556 145.467 368.049 145.24 367.383 145.24ZM377.775 154.24C376.775 154.24 375.935 154.073 375.255 153.74C374.575 153.393 373.975 152.92 373.455 152.32L375.015 150.8C375.402 151.24 375.822 151.587 376.275 151.84C376.742 152.093 377.275 152.22 377.875 152.22C378.488 152.22 378.928 152.113 379.195 151.9C379.475 151.687 379.615 151.393 379.615 151.02C379.615 150.713 379.515 150.473 379.315 150.3C379.128 150.113 378.802 149.987 378.335 149.92L377.295 149.78C376.162 149.633 375.295 149.313 374.695 148.82C374.108 148.313 373.815 147.58 373.815 146.62C373.815 146.113 373.908 145.66 374.095 145.26C374.282 144.847 374.548 144.5 374.895 144.22C375.242 143.927 375.655 143.707 376.135 143.56C376.628 143.4 377.175 143.32 377.775 143.32C378.282 143.32 378.728 143.36 379.115 143.44C379.515 143.507 379.875 143.613 380.195 143.76C380.515 143.893 380.808 144.067 381.075 144.28C381.342 144.48 381.602 144.707 381.855 144.96L380.355 146.46C380.048 146.14 379.682 145.873 379.255 145.66C378.828 145.447 378.362 145.34 377.855 145.34C377.295 145.34 376.888 145.44 376.635 145.64C376.395 145.84 376.275 146.1 376.275 146.42C376.275 146.767 376.375 147.033 376.575 147.22C376.788 147.393 377.142 147.52 377.635 147.6L378.695 147.74C380.948 148.06 382.075 149.087 382.075 150.82C382.075 151.327 381.968 151.793 381.755 152.22C381.555 152.633 381.268 152.993 380.895 153.3C380.522 153.593 380.068 153.827 379.535 154C379.015 154.16 378.428 154.24 377.775 154.24ZM387.439 154C386.559 154 385.886 153.773 385.419 153.32C384.966 152.853 384.739 152.193 384.739 151.34V145.6H383.199V143.56H383.999C384.386 143.56 384.646 143.473 384.779 143.3C384.926 143.113 384.999 142.84 384.999 142.48V140.7H387.299V143.56H389.439V145.6H387.299V151.96H389.279V154H387.439ZM392.94 142.04C392.406 142.04 392.02 141.92 391.78 141.68C391.553 141.44 391.44 141.133 391.44 140.76V140.36C391.44 139.987 391.553 139.68 391.78 139.44C392.02 139.2 392.406 139.08 392.94 139.08C393.46 139.08 393.84 139.2 394.08 139.44C394.32 139.68 394.44 139.987 394.44 140.36V140.76C394.44 141.133 394.32 141.44 394.08 141.68C393.84 141.92 393.46 142.04 392.94 142.04ZM391.66 143.56H394.22V154H391.66V143.56ZM397.187 154V143.56H399.747V145.3H399.847C400.06 144.74 400.394 144.273 400.847 143.9C401.314 143.513 401.954 143.32 402.767 143.32C403.847 143.32 404.674 143.673 405.247 144.38C405.82 145.087 406.107 146.093 406.107 147.4V154H403.547V147.66C403.547 146.913 403.414 146.353 403.147 145.98C402.88 145.607 402.44 145.42 401.827 145.42C401.56 145.42 401.3 145.46 401.047 145.54C400.807 145.607 400.587 145.713 400.387 145.86C400.2 145.993 400.047 146.167 399.927 146.38C399.807 146.58 399.747 146.82 399.747 147.1V154H397.187ZM418.365 154.88C418.365 155.427 418.265 155.907 418.065 156.32C417.878 156.747 417.565 157.1 417.125 157.38C416.685 157.66 416.118 157.873 415.425 158.02C414.732 158.167 413.885 158.24 412.885 158.24C412.005 158.24 411.258 158.18 410.645 158.06C410.032 157.953 409.525 157.793 409.125 157.58C408.738 157.38 408.458 157.127 408.285 156.82C408.112 156.513 408.025 156.167 408.025 155.78C408.025 155.193 408.185 154.733 408.505 154.4C408.838 154.08 409.298 153.873 409.885 153.78V153.56C409.458 153.453 409.125 153.247 408.885 152.94C408.658 152.62 408.545 152.247 408.545 151.82C408.545 151.553 408.598 151.32 408.705 151.12C408.812 150.907 408.952 150.727 409.125 150.58C409.312 150.433 409.518 150.313 409.745 150.22C409.972 150.113 410.212 150.033 410.465 149.98V149.9C409.825 149.607 409.345 149.2 409.025 148.68C408.718 148.16 408.565 147.553 408.565 146.86C408.565 145.793 408.932 144.94 409.665 144.3C410.398 143.647 411.472 143.32 412.885 143.32C413.205 143.32 413.518 143.34 413.825 143.38C414.145 143.42 414.438 143.487 414.705 143.58V143.24C414.705 142.227 415.198 141.72 416.185 141.72H417.805V143.68H415.585V143.96C416.132 144.267 416.538 144.667 416.805 145.16C417.072 145.653 417.205 146.22 417.205 146.86C417.205 147.913 416.838 148.76 416.105 149.4C415.385 150.04 414.312 150.36 412.885 150.36C412.272 150.36 411.738 150.3 411.285 150.18C411.085 150.273 410.912 150.4 410.765 150.56C410.618 150.707 410.545 150.893 410.545 151.12C410.545 151.64 410.998 151.9 411.905 151.9H414.705C415.985 151.9 416.912 152.167 417.485 152.7C418.072 153.22 418.365 153.947 418.365 154.88ZM415.965 155.18C415.965 154.847 415.832 154.587 415.565 154.4C415.298 154.213 414.838 154.12 414.185 154.12H410.625C410.265 154.387 410.085 154.747 410.085 155.2C410.085 155.6 410.252 155.913 410.585 156.14C410.918 156.367 411.485 156.48 412.285 156.48H413.565C414.405 156.48 415.012 156.373 415.385 156.16C415.772 155.947 415.965 155.62 415.965 155.18ZM412.885 148.62C414.138 148.62 414.765 148.087 414.765 147.02V146.68C414.765 145.613 414.138 145.08 412.885 145.08C411.632 145.08 411.005 145.613 411.005 146.68V147.02C411.005 148.087 411.632 148.62 412.885 148.62ZM421.617 139C422.163 139 422.557 139.133 422.797 139.4C423.05 139.653 423.177 139.973 423.177 140.36V140.74C423.177 141.1 423.123 141.467 423.017 141.84C422.923 142.2 422.783 142.553 422.597 142.9C422.41 143.247 422.19 143.573 421.937 143.88C421.683 144.187 421.41 144.46 421.117 144.7H419.397C419.823 144.3 420.183 143.9 420.477 143.5C420.77 143.087 420.99 142.633 421.137 142.14C420.75 142.073 420.47 141.92 420.297 141.68C420.123 141.427 420.037 141.133 420.037 140.8V140.36C420.037 139.973 420.157 139.653 420.397 139.4C420.65 139.133 421.057 139 421.617 139Z" fill="#421BE0"/>
<path d="M42 68C42 65.7909 43.7909 64 46 64H538C540.209 64 542 65.7909 542 68V126H42V68Z" fill="#421BE0"/>
<path d="M245.06 103.24C244.14 103.24 243.307 103.093 242.56 102.8C241.827 102.493 241.193 102.04 240.66 101.44C240.14 100.84 239.74 100.1 239.46 99.22C239.18 98.3267 239.04 97.2933 239.04 96.12C239.04 94.9467 239.18 93.9067 239.46 93C239.74 92.08 240.14 91.3133 240.66 90.7C241.193 90.0733 241.827 89.6 242.56 89.28C243.307 88.96 244.14 88.8 245.06 88.8C246.313 88.8 247.353 89.0667 248.18 89.6C249.007 90.1333 249.667 90.94 250.16 92.02L247.9 93.22C247.7 92.5933 247.373 92.0933 246.92 91.72C246.467 91.3333 245.847 91.14 245.06 91.14C244.073 91.14 243.287 91.4733 242.7 92.14C242.127 92.8067 241.84 93.74 241.84 94.94V97.14C241.84 98.3533 242.127 99.2867 242.7 99.94C243.287 100.58 244.073 100.9 245.06 100.9C245.847 100.9 246.487 100.687 246.98 100.26C247.487 99.8333 247.853 99.3067 248.08 98.68L250.22 99.94C249.713 100.98 249.04 101.793 248.2 102.38C247.36 102.953 246.313 103.24 245.06 103.24ZM256.452 103.24C255.705 103.24 255.032 103.113 254.432 102.86C253.845 102.607 253.339 102.24 252.912 101.76C252.499 101.28 252.179 100.707 251.952 100.04C251.725 99.36 251.612 98.6 251.612 97.76C251.612 96.92 251.725 96.1667 251.952 95.5C252.179 94.8333 252.499 94.2667 252.912 93.8C253.339 93.32 253.845 92.9533 254.432 92.7C255.032 92.4467 255.705 92.32 256.452 92.32C257.199 92.32 257.872 92.4467 258.472 92.7C259.072 92.9533 259.579 93.32 259.992 93.8C260.419 94.2667 260.745 94.8333 260.972 95.5C261.199 96.1667 261.312 96.92 261.312 97.76C261.312 98.6 261.199 99.36 260.972 100.04C260.745 100.707 260.419 101.28 259.992 101.76C259.579 102.24 259.072 102.607 258.472 102.86C257.872 103.113 257.199 103.24 256.452 103.24ZM256.452 101.18C257.132 101.18 257.665 100.973 258.052 100.56C258.439 100.147 258.632 99.54 258.632 98.74V96.8C258.632 96.0133 258.439 95.4133 258.052 95C257.665 94.5867 257.132 94.38 256.452 94.38C255.785 94.38 255.259 94.5867 254.872 95C254.485 95.4133 254.292 96.0133 254.292 96.8V98.74C254.292 99.54 254.485 100.147 254.872 100.56C255.259 100.973 255.785 101.18 256.452 101.18ZM263.582 103V92.56H266.142V94.3H266.242C266.455 93.74 266.788 93.2733 267.242 92.9C267.708 92.5133 268.348 92.32 269.162 92.32C270.242 92.32 271.068 92.6733 271.642 93.38C272.215 94.0867 272.502 95.0933 272.502 96.4V103H269.942V96.66C269.942 95.9133 269.808 95.3533 269.542 94.98C269.275 94.6067 268.835 94.42 268.222 94.42C267.955 94.42 267.695 94.46 267.442 94.54C267.202 94.6067 266.982 94.7133 266.782 94.86C266.595 94.9933 266.442 95.1667 266.322 95.38C266.202 95.58 266.142 95.82 266.142 96.1V103H263.582ZM281.819 101.26H281.719C281.533 101.86 281.179 102.34 280.659 102.7C280.139 103.06 279.533 103.24 278.839 103.24C277.519 103.24 276.506 102.767 275.799 101.82C275.106 100.873 274.759 99.52 274.759 97.76C274.759 96.0133 275.106 94.6733 275.799 93.74C276.506 92.7933 277.519 92.32 278.839 92.32C279.533 92.32 280.139 92.5 280.659 92.86C281.179 93.2067 281.533 93.68 281.719 94.28H281.819V88.2H284.379V103H281.819V101.26ZM279.659 101.12C280.273 101.12 280.786 100.973 281.199 100.68C281.613 100.387 281.819 99.9667 281.819 99.42V96.1C281.819 95.5933 281.613 95.1867 281.199 94.88C280.786 94.5733 280.273 94.42 279.659 94.42C278.993 94.42 278.453 94.6467 278.039 95.1C277.639 95.54 277.439 96.1333 277.439 96.88V98.68C277.439 99.4267 277.639 100.02 278.039 100.46C278.453 100.9 278.993 101.12 279.659 101.12ZM288.612 91.04C288.078 91.04 287.692 90.92 287.452 90.68C287.225 90.44 287.112 90.1333 287.112 89.76V89.36C287.112 88.9867 287.225 88.68 287.452 88.44C287.692 88.2 288.078 88.08 288.612 88.08C289.132 88.08 289.512 88.2 289.752 88.44C289.992 88.68 290.112 88.9867 290.112 89.36V89.76C290.112 90.1333 289.992 90.44 289.752 90.68C289.512 90.92 289.132 91.04 288.612 91.04ZM287.332 92.56H289.892V103H287.332V92.56ZM296.119 103C295.239 103 294.566 102.773 294.099 102.32C293.646 101.853 293.419 101.193 293.419 100.34V94.6H291.879V92.56H292.679C293.066 92.56 293.326 92.4733 293.459 92.3C293.606 92.1133 293.679 91.84 293.679 91.48V89.7H295.979V92.56H298.119V94.6H295.979V100.96H297.959V103H296.119ZM301.619 91.04C301.086 91.04 300.699 90.92 300.459 90.68C300.233 90.44 300.119 90.1333 300.119 89.76V89.36C300.119 88.9867 300.233 88.68 300.459 88.44C300.699 88.2 301.086 88.08 301.619 88.08C302.139 88.08 302.519 88.2 302.759 88.44C302.999 88.68 303.119 88.9867 303.119 89.36V89.76C303.119 90.1333 302.999 90.44 302.759 90.68C302.519 90.92 302.139 91.04 301.619 91.04ZM300.339 92.56H302.899V103H300.339V92.56ZM310.007 103.24C309.26 103.24 308.587 103.113 307.987 102.86C307.4 102.607 306.893 102.24 306.467 101.76C306.053 101.28 305.733 100.707 305.507 100.04C305.28 99.36 305.167 98.6 305.167 97.76C305.167 96.92 305.28 96.1667 305.507 95.5C305.733 94.8333 306.053 94.2667 306.467 93.8C306.893 93.32 307.4 92.9533 307.987 92.7C308.587 92.4467 309.26 92.32 310.007 92.32C310.753 92.32 311.427 92.4467 312.027 92.7C312.627 92.9533 313.133 93.32 313.547 93.8C313.973 94.2667 314.3 94.8333 314.527 95.5C314.753 96.1667 314.867 96.92 314.867 97.76C314.867 98.6 314.753 99.36 314.527 100.04C314.3 100.707 313.973 101.28 313.547 101.76C313.133 102.24 312.627 102.607 312.027 102.86C311.427 103.113 310.753 103.24 310.007 103.24ZM310.007 101.18C310.687 101.18 311.22 100.973 311.607 100.56C311.993 100.147 312.187 99.54 312.187 98.74V96.8C312.187 96.0133 311.993 95.4133 311.607 95C311.22 94.5867 310.687 94.38 310.007 94.38C309.34 94.38 308.813 94.5867 308.427 95C308.04 95.4133 307.847 96.0133 307.847 96.8V98.74C307.847 99.54 308.04 100.147 308.427 100.56C308.813 100.973 309.34 101.18 310.007 101.18ZM317.136 103V92.56H319.696V94.3H319.796C320.01 93.74 320.343 93.2733 320.796 92.9C321.263 92.5133 321.903 92.32 322.716 92.32C323.796 92.32 324.623 92.6733 325.196 93.38C325.77 94.0867 326.056 95.0933 326.056 96.4V103H323.496V96.66C323.496 95.9133 323.363 95.3533 323.096 94.98C322.83 94.6067 322.39 94.42 321.776 94.42C321.51 94.42 321.25 94.46 320.996 94.54C320.756 94.6067 320.536 94.7133 320.336 94.86C320.15 94.9933 319.996 95.1667 319.876 95.38C319.756 95.58 319.696 95.82 319.696 96.1V103H317.136ZM332.314 103.24C331.314 103.24 330.474 103.073 329.794 102.74C329.114 102.393 328.514 101.92 327.994 101.32L329.554 99.8C329.941 100.24 330.361 100.587 330.814 100.84C331.281 101.093 331.814 101.22 332.414 101.22C333.027 101.22 333.467 101.113 333.734 100.9C334.014 100.687 334.154 100.393 334.154 100.02C334.154 99.7133 334.054 99.4733 333.854 99.3C333.667 99.1133 333.341 98.9867 332.874 98.92L331.834 98.78C330.701 98.6333 329.834 98.3133 329.234 97.82C328.647 97.3133 328.354 96.58 328.354 95.62C328.354 95.1133 328.447 94.66 328.634 94.26C328.821 93.8467 329.087 93.5 329.434 93.22C329.781 92.9267 330.194 92.7067 330.674 92.56C331.167 92.4 331.714 92.32 332.314 92.32C332.821 92.32 333.267 92.36 333.654 92.44C334.054 92.5067 334.414 92.6133 334.734 92.76C335.054 92.8933 335.347 93.0667 335.614 93.28C335.881 93.48 336.141 93.7067 336.394 93.96L334.894 95.46C334.587 95.14 334.221 94.8733 333.794 94.66C333.367 94.4467 332.901 94.34 332.394 94.34C331.834 94.34 331.427 94.44 331.174 94.64C330.934 94.84 330.814 95.1 330.814 95.42C330.814 95.7667 330.914 96.0333 331.114 96.22C331.327 96.3933 331.681 96.52 332.174 96.6L333.234 96.74C335.487 97.06 336.614 98.0867 336.614 99.82C336.614 100.327 336.507 100.793 336.294 101.22C336.094 101.633 335.807 101.993 335.434 102.3C335.061 102.593 334.607 102.827 334.074 103C333.554 103.16 332.967 103.24 332.314 103.24Z" fill="white"/>
<path d="M59 101V98.58H60.8V89.46H59V87.04H65.64V89.46H63.84V98.58H65.64V101H59ZM68.5328 92.8H67.0528V90.5H68.5328V89.26C68.5328 88.2467 68.7995 87.4867 69.3328 86.98C69.8661 86.46 70.6461 86.2 71.6728 86.2H73.5928V88.5H71.4928V90.5H73.5928V92.8H71.4928V101H68.5328V92.8Z" fill="white"/>
<path d="M42 368H542V408C542 412.418 538.418 416 534 416H50C45.5817 416 42 412.418 42 408V368Z" fill="#C9EBD2"/>
<path d="M526.667 388.273L525.727 387.333L522 391.06L518.273 387.333L517.333 388.273L521.06 392L517.333 395.727L518.273 396.667L522 392.94L525.727 396.667L526.667 395.727L522.94 392L526.667 388.273Z" fill="#34A853"/>
<path d="M198.64 383.04H203.72C204.627 383.04 205.447 383.187 206.18 383.48C206.927 383.773 207.56 384.213 208.08 384.8C208.613 385.373 209.02 386.1 209.3 386.98C209.593 387.847 209.74 388.86 209.74 390.02C209.74 391.18 209.593 392.2 209.3 393.08C209.02 393.947 208.613 394.673 208.08 395.26C207.56 395.833 206.927 396.267 206.18 396.56C205.447 396.853 204.627 397 203.72 397H198.64V383.04ZM203.72 394.66C204.707 394.66 205.487 394.373 206.06 393.8C206.647 393.213 206.94 392.32 206.94 391.12V388.92C206.94 387.72 206.647 386.833 206.06 386.26C205.487 385.673 204.707 385.38 203.72 385.38H201.28V394.66H203.72ZM216.409 397.24C215.662 397.24 214.989 397.113 214.389 396.86C213.802 396.607 213.296 396.24 212.869 395.76C212.456 395.28 212.136 394.707 211.909 394.04C211.682 393.36 211.569 392.6 211.569 391.76C211.569 390.92 211.682 390.167 211.909 389.5C212.136 388.833 212.456 388.267 212.869 387.8C213.296 387.32 213.802 386.953 214.389 386.7C214.989 386.447 215.662 386.32 216.409 386.32C217.156 386.32 217.829 386.447 218.429 386.7C219.029 386.953 219.536 387.32 219.949 387.8C220.376 388.267 220.702 388.833 220.929 389.5C221.156 390.167 221.269 390.92 221.269 391.76C221.269 392.6 221.156 393.36 220.929 394.04C220.702 394.707 220.376 395.28 219.949 395.76C219.536 396.24 219.029 396.607 218.429 396.86C217.829 397.113 217.156 397.24 216.409 397.24ZM216.409 395.18C217.089 395.18 217.622 394.973 218.009 394.56C218.396 394.147 218.589 393.54 218.589 392.74V390.8C218.589 390.013 218.396 389.413 218.009 389C217.622 388.587 217.089 388.38 216.409 388.38C215.742 388.38 215.216 388.587 214.829 389C214.442 389.413 214.249 390.013 214.249 390.8V392.74C214.249 393.54 214.442 394.147 214.829 394.56C215.216 394.973 215.742 395.18 216.409 395.18ZM228.265 397V386.56H230.825V388.3H230.925C231.138 387.74 231.472 387.273 231.925 386.9C232.392 386.513 233.032 386.32 233.845 386.32C234.925 386.32 235.752 386.673 236.325 387.38C236.898 388.087 237.185 389.093 237.185 390.4V397H234.625V390.66C234.625 389.913 234.492 389.353 234.225 388.98C233.958 388.607 233.518 388.42 232.905 388.42C232.638 388.42 232.378 388.46 232.125 388.54C231.885 388.607 231.665 388.713 231.465 388.86C231.278 388.993 231.125 389.167 231.005 389.38C230.885 389.58 230.825 389.82 230.825 390.1V397H228.265ZM244.163 397.24C243.416 397.24 242.743 397.113 242.143 396.86C241.556 396.607 241.05 396.24 240.623 395.76C240.21 395.28 239.89 394.707 239.663 394.04C239.436 393.36 239.323 392.6 239.323 391.76C239.323 390.92 239.436 390.167 239.663 389.5C239.89 388.833 240.21 388.267 240.623 387.8C241.05 387.32 241.556 386.953 242.143 386.7C242.743 386.447 243.416 386.32 244.163 386.32C244.91 386.32 245.583 386.447 246.183 386.7C246.783 386.953 247.29 387.32 247.703 387.8C248.13 388.267 248.456 388.833 248.683 389.5C248.91 390.167 249.023 390.92 249.023 391.76C249.023 392.6 248.91 393.36 248.683 394.04C248.456 394.707 248.13 395.28 247.703 395.76C247.29 396.24 246.783 396.607 246.183 396.86C245.583 397.113 244.91 397.24 244.163 397.24ZM244.163 395.18C244.843 395.18 245.376 394.973 245.763 394.56C246.15 394.147 246.343 393.54 246.343 392.74V390.8C246.343 390.013 246.15 389.413 245.763 389C245.376 388.587 244.843 388.38 244.163 388.38C243.496 388.38 242.97 388.587 242.583 389C242.196 389.413 242.003 390.013 242.003 390.8V392.74C242.003 393.54 242.196 394.147 242.583 394.56C242.97 394.973 243.496 395.18 244.163 395.18ZM254.474 397C253.594 397 252.921 396.773 252.454 396.32C252.001 395.853 251.774 395.193 251.774 394.34V388.6H250.234V386.56H251.034C251.421 386.56 251.681 386.473 251.814 386.3C251.961 386.113 252.034 385.84 252.034 385.48V383.7H254.334V386.56H256.474V388.6H254.334V394.96H256.314V397H254.474ZM267.541 397.24C266.768 397.24 266.081 397.113 265.481 396.86C264.881 396.607 264.375 396.24 263.961 395.76C263.561 395.28 263.255 394.707 263.041 394.04C262.828 393.36 262.721 392.6 262.721 391.76C262.721 390.92 262.828 390.167 263.041 389.5C263.255 388.833 263.561 388.267 263.961 387.8C264.375 387.32 264.881 386.953 265.481 386.7C266.081 386.447 266.768 386.32 267.541 386.32C268.595 386.32 269.461 386.553 270.141 387.02C270.835 387.487 271.335 388.133 271.641 388.96L269.541 389.9C269.421 389.46 269.195 389.1 268.861 388.82C268.541 388.527 268.101 388.38 267.541 388.38C266.821 388.38 266.281 388.607 265.921 389.06C265.575 389.513 265.401 390.107 265.401 390.84V392.74C265.401 393.473 265.575 394.067 265.921 394.52C266.281 394.96 266.821 395.18 267.541 395.18C268.155 395.18 268.628 395.027 268.961 394.72C269.295 394.4 269.555 394.007 269.741 393.54L271.701 394.48C271.355 395.4 270.828 396.093 270.121 396.56C269.415 397.013 268.555 397.24 267.541 397.24ZM273.675 397V386.56H276.235V388.72H276.335C276.402 388.44 276.502 388.173 276.635 387.92C276.782 387.653 276.969 387.42 277.195 387.22C277.422 387.02 277.689 386.86 277.995 386.74C278.315 386.62 278.682 386.56 279.095 386.56H279.655V388.98H278.855C277.989 388.98 277.335 389.107 276.895 389.36C276.455 389.613 276.235 390.027 276.235 390.6V397H273.675ZM285.649 397.24C284.876 397.24 284.183 397.113 283.569 396.86C282.969 396.593 282.456 396.227 282.029 395.76C281.616 395.28 281.296 394.707 281.069 394.04C280.843 393.36 280.729 392.6 280.729 391.76C280.729 390.933 280.836 390.187 281.049 389.52C281.276 388.853 281.596 388.287 282.009 387.82C282.423 387.34 282.929 386.973 283.529 386.72C284.129 386.453 284.809 386.32 285.569 386.32C286.383 386.32 287.089 386.46 287.689 386.74C288.289 387.02 288.783 387.4 289.169 387.88C289.556 388.36 289.843 388.92 290.029 389.56C290.229 390.187 290.329 390.86 290.329 391.58V392.42H283.389V392.68C283.389 393.44 283.603 394.053 284.029 394.52C284.456 394.973 285.089 395.2 285.929 395.2C286.569 395.2 287.089 395.067 287.489 394.8C287.903 394.533 288.269 394.193 288.589 393.78L289.969 395.32C289.543 395.92 288.956 396.393 288.209 396.74C287.476 397.073 286.623 397.24 285.649 397.24ZM285.609 388.24C284.929 388.24 284.389 388.467 283.989 388.92C283.589 389.373 283.389 389.96 283.389 390.68V390.84H287.669V390.66C287.669 389.94 287.489 389.36 287.129 388.92C286.783 388.467 286.276 388.24 285.609 388.24ZM300.262 397C299.702 397 299.255 396.84 298.922 396.52C298.602 396.187 298.402 395.747 298.322 395.2H298.202C298.028 395.88 297.675 396.393 297.142 396.74C296.608 397.073 295.948 397.24 295.162 397.24C294.095 397.24 293.275 396.96 292.702 396.4C292.128 395.84 291.842 395.093 291.842 394.16C291.842 393.08 292.228 392.28 293.002 391.76C293.775 391.227 294.875 390.96 296.302 390.96H298.082V390.2C298.082 389.613 297.928 389.16 297.622 388.84C297.315 388.52 296.822 388.36 296.142 388.36C295.542 388.36 295.055 388.493 294.682 388.76C294.322 389.013 294.015 389.32 293.762 389.68L292.242 388.32C292.628 387.72 293.142 387.24 293.782 386.88C294.422 386.507 295.268 386.32 296.322 386.32C297.735 386.32 298.808 386.64 299.542 387.28C300.275 387.92 300.642 388.84 300.642 390.04V394.96H301.682V397H300.262ZM296.022 395.38C296.595 395.38 297.082 395.253 297.482 395C297.882 394.747 298.082 394.373 298.082 393.88V392.5H296.442C295.108 392.5 294.442 392.927 294.442 393.78V394.12C294.442 394.547 294.575 394.867 294.842 395.08C295.122 395.28 295.515 395.38 296.022 395.38ZM306.935 397C306.055 397 305.382 396.773 304.915 396.32C304.462 395.853 304.235 395.193 304.235 394.34V388.6H302.695V386.56H303.495C303.882 386.56 304.142 386.473 304.275 386.3C304.422 386.113 304.495 385.84 304.495 385.48V383.7H306.795V386.56H308.935V388.6H306.795V394.96H308.775V397H306.935ZM315.298 397.24C314.524 397.24 313.831 397.113 313.218 396.86C312.618 396.593 312.104 396.227 311.678 395.76C311.264 395.28 310.944 394.707 310.718 394.04C310.491 393.36 310.378 392.6 310.378 391.76C310.378 390.933 310.484 390.187 310.698 389.52C310.924 388.853 311.244 388.287 311.658 387.82C312.071 387.34 312.578 386.973 313.178 386.72C313.778 386.453 314.458 386.32 315.218 386.32C316.031 386.32 316.738 386.46 317.338 386.74C317.938 387.02 318.431 387.4 318.818 387.88C319.204 388.36 319.491 388.92 319.678 389.56C319.878 390.187 319.978 390.86 319.978 391.58V392.42H313.038V392.68C313.038 393.44 313.251 394.053 313.678 394.52C314.104 394.973 314.738 395.2 315.578 395.2C316.218 395.2 316.738 395.067 317.138 394.8C317.551 394.533 317.918 394.193 318.238 393.78L319.618 395.32C319.191 395.92 318.604 396.393 317.858 396.74C317.124 397.073 316.271 397.24 315.298 397.24ZM315.258 388.24C314.578 388.24 314.038 388.467 313.638 388.92C313.238 389.373 313.038 389.96 313.038 390.68V390.84H317.318V390.66C317.318 389.94 317.138 389.36 316.778 388.92C316.431 388.467 315.924 388.24 315.258 388.24ZM328.237 385.04C327.703 385.04 327.317 384.92 327.077 384.68C326.85 384.44 326.737 384.133 326.737 383.76V383.36C326.737 382.987 326.85 382.68 327.077 382.44C327.317 382.2 327.703 382.08 328.237 382.08C328.757 382.08 329.137 382.2 329.377 382.44C329.617 382.68 329.737 382.987 329.737 383.36V383.76C329.737 384.133 329.617 384.44 329.377 384.68C329.137 384.92 328.757 385.04 328.237 385.04ZM326.957 386.56H329.517V397H326.957V386.56ZM332.484 397V386.56H335.044V388.3H335.144C335.357 387.74 335.691 387.273 336.144 386.9C336.611 386.513 337.251 386.32 338.064 386.32C339.144 386.32 339.971 386.673 340.544 387.38C341.117 388.087 341.404 389.093 341.404 390.4V397H338.844V390.66C338.844 389.913 338.711 389.353 338.444 388.98C338.177 388.607 337.737 388.42 337.124 388.42C336.857 388.42 336.597 388.46 336.344 388.54C336.104 388.607 335.884 388.713 335.684 388.86C335.497 388.993 335.344 389.167 335.224 389.38C335.104 389.58 335.044 389.82 335.044 390.1V397H332.484ZM348.362 397.24C347.588 397.24 346.902 397.113 346.302 396.86C345.702 396.607 345.195 396.24 344.782 395.76C344.382 395.28 344.075 394.707 343.862 394.04C343.648 393.36 343.542 392.6 343.542 391.76C343.542 390.92 343.648 390.167 343.862 389.5C344.075 388.833 344.382 388.267 344.782 387.8C345.195 387.32 345.702 386.953 346.302 386.7C346.902 386.447 347.588 386.32 348.362 386.32C349.415 386.32 350.282 386.553 350.962 387.02C351.655 387.487 352.155 388.133 352.462 388.96L350.362 389.9C350.242 389.46 350.015 389.1 349.682 388.82C349.362 388.527 348.922 388.38 348.362 388.38C347.642 388.38 347.102 388.607 346.742 389.06C346.395 389.513 346.222 390.107 346.222 390.84V392.74C346.222 393.473 346.395 394.067 346.742 394.52C347.102 394.96 347.642 395.18 348.362 395.18C348.975 395.18 349.448 395.027 349.782 394.72C350.115 394.4 350.375 394.007 350.562 393.54L352.522 394.48C352.175 395.4 351.648 396.093 350.942 396.56C350.235 397.013 349.375 397.24 348.362 397.24ZM355.776 385.04C355.242 385.04 354.856 384.92 354.616 384.68C354.389 384.44 354.276 384.133 354.276 383.76V383.36C354.276 382.987 354.389 382.68 354.616 382.44C354.856 382.2 355.242 382.08 355.776 382.08C356.296 382.08 356.676 382.2 356.916 382.44C357.156 382.68 357.276 382.987 357.276 383.36V383.76C357.276 384.133 357.156 384.44 356.916 384.68C356.676 384.92 356.296 385.04 355.776 385.04ZM354.496 386.56H357.056V397H354.496V386.56ZM366.503 395.26H366.403C366.216 395.86 365.863 396.34 365.343 396.7C364.823 397.06 364.216 397.24 363.523 397.24C362.203 397.24 361.19 396.767 360.483 395.82C359.79 394.873 359.443 393.52 359.443 391.76C359.443 390.013 359.79 388.673 360.483 387.74C361.19 386.793 362.203 386.32 363.523 386.32C364.216 386.32 364.823 386.5 365.343 386.86C365.863 387.207 366.216 387.68 366.403 388.28H366.503V382.2H369.063V397H366.503V395.26ZM364.343 395.12C364.956 395.12 365.47 394.973 365.883 394.68C366.296 394.387 366.503 393.967 366.503 393.42V390.1C366.503 389.593 366.296 389.187 365.883 388.88C365.47 388.573 364.956 388.42 364.343 388.42C363.676 388.42 363.136 388.647 362.723 389.1C362.323 389.54 362.123 390.133 362.123 390.88V392.68C362.123 393.427 362.323 394.02 362.723 394.46C363.136 394.9 363.676 395.12 364.343 395.12ZM376.235 397.24C375.462 397.24 374.768 397.113 374.155 396.86C373.555 396.593 373.042 396.227 372.615 395.76C372.202 395.28 371.882 394.707 371.655 394.04C371.428 393.36 371.315 392.6 371.315 391.76C371.315 390.933 371.422 390.187 371.635 389.52C371.862 388.853 372.182 388.287 372.595 387.82C373.008 387.34 373.515 386.973 374.115 386.72C374.715 386.453 375.395 386.32 376.155 386.32C376.968 386.32 377.675 386.46 378.275 386.74C378.875 387.02 379.368 387.4 379.755 387.88C380.142 388.36 380.428 388.92 380.615 389.56C380.815 390.187 380.915 390.86 380.915 391.58V392.42H373.975V392.68C373.975 393.44 374.188 394.053 374.615 394.52C375.042 394.973 375.675 395.2 376.515 395.2C377.155 395.2 377.675 395.067 378.075 394.8C378.488 394.533 378.855 394.193 379.175 393.78L380.555 395.32C380.128 395.92 379.542 396.393 378.795 396.74C378.062 397.073 377.208 397.24 376.235 397.24ZM376.195 388.24C375.515 388.24 374.975 388.467 374.575 388.92C374.175 389.373 373.975 389.96 373.975 390.68V390.84H378.255V390.66C378.255 389.94 378.075 389.36 377.715 388.92C377.368 388.467 376.862 388.24 376.195 388.24ZM383.168 397V386.56H385.728V388.3H385.828C386.041 387.74 386.374 387.273 386.827 386.9C387.294 386.513 387.934 386.32 388.748 386.32C389.828 386.32 390.654 386.673 391.228 387.38C391.801 388.087 392.088 389.093 392.088 390.4V397H389.528V390.66C389.528 389.913 389.394 389.353 389.128 388.98C388.861 388.607 388.421 388.42 387.808 388.42C387.541 388.42 387.281 388.46 387.028 388.54C386.788 388.607 386.568 388.713 386.368 388.86C386.181 388.993 386.028 389.167 385.908 389.38C385.788 389.58 385.728 389.82 385.728 390.1V397H383.168ZM398.185 397C397.305 397 396.632 396.773 396.165 396.32C395.712 395.853 395.485 395.193 395.485 394.34V388.6H393.945V386.56H394.745C395.132 386.56 395.392 386.473 395.525 386.3C395.672 386.113 395.745 385.84 395.745 385.48V383.7H398.045V386.56H400.185V388.6H398.045V394.96H400.025V397H398.185Z" fill="#34A853"/>
<path d="M43 314C43 309.582 46.5817 306 51 306H535C539.418 306 543 309.582 543 314V368H43V314Z" fill="#34A853"/>
<path d="M220.64 343V329.04H229.84V331.38H223.28V334.76H229.08V337.1H223.28V340.66H229.84V343H220.64ZM231.372 343L234.932 337.7L231.452 332.56H234.372L236.532 336.02H236.612L238.752 332.56H241.472L237.932 337.74L241.492 343H238.572L236.372 339.4H236.292L234.092 343H231.372ZM247.278 343.24C246.505 343.24 245.811 343.113 245.198 342.86C244.598 342.593 244.085 342.227 243.658 341.76C243.245 341.28 242.925 340.707 242.698 340.04C242.471 339.36 242.358 338.6 242.358 337.76C242.358 336.933 242.465 336.187 242.678 335.52C242.905 334.853 243.225 334.287 243.638 333.82C244.051 333.34 244.558 332.973 245.158 332.72C245.758 332.453 246.438 332.32 247.198 332.32C248.011 332.32 248.718 332.46 249.318 332.74C249.918 333.02 250.411 333.4 250.798 333.88C251.185 334.36 251.471 334.92 251.658 335.56C251.858 336.187 251.958 336.86 251.958 337.58V338.42H245.018V338.68C245.018 339.44 245.231 340.053 245.658 340.52C246.085 340.973 246.718 341.2 247.558 341.2C248.198 341.2 248.718 341.067 249.118 340.8C249.531 340.533 249.898 340.193 250.218 339.78L251.598 341.32C251.171 341.92 250.585 342.393 249.838 342.74C249.105 343.073 248.251 343.24 247.278 343.24ZM247.238 334.24C246.558 334.24 246.018 334.467 245.618 334.92C245.218 335.373 245.018 335.96 245.018 336.68V336.84H249.298V336.66C249.298 335.94 249.118 335.36 248.758 334.92C248.411 334.467 247.905 334.24 247.238 334.24ZM258.33 343.24C257.557 343.24 256.87 343.113 256.27 342.86C255.67 342.607 255.164 342.24 254.75 341.76C254.35 341.28 254.044 340.707 253.83 340.04C253.617 339.36 253.51 338.6 253.51 337.76C253.51 336.92 253.617 336.167 253.83 335.5C254.044 334.833 254.35 334.267 254.75 333.8C255.164 333.32 255.67 332.953 256.27 332.7C256.87 332.447 257.557 332.32 258.33 332.32C259.384 332.32 260.25 332.553 260.93 333.02C261.624 333.487 262.124 334.133 262.43 334.96L260.33 335.9C260.21 335.46 259.984 335.1 259.65 334.82C259.33 334.527 258.89 334.38 258.33 334.38C257.61 334.38 257.07 334.607 256.71 335.06C256.364 335.513 256.19 336.107 256.19 336.84V338.74C256.19 339.473 256.364 340.067 256.71 340.52C257.07 340.96 257.61 341.18 258.33 341.18C258.944 341.18 259.417 341.027 259.75 340.72C260.084 340.4 260.344 340.007 260.53 339.54L262.49 340.48C262.144 341.4 261.617 342.093 260.91 342.56C260.204 343.013 259.344 343.24 258.33 343.24ZM270.704 341.26H270.604C270.511 341.527 270.384 341.78 270.224 342.02C270.078 342.247 269.884 342.453 269.644 342.64C269.418 342.827 269.138 342.973 268.804 343.08C268.484 343.187 268.111 343.24 267.684 343.24C266.604 343.24 265.778 342.887 265.204 342.18C264.631 341.473 264.344 340.467 264.344 339.16V332.56H266.904V338.9C266.904 339.62 267.044 340.173 267.324 340.56C267.604 340.933 268.051 341.12 268.664 341.12C268.918 341.12 269.164 341.087 269.404 341.02C269.658 340.953 269.878 340.853 270.064 340.72C270.251 340.573 270.404 340.4 270.524 340.2C270.644 339.987 270.704 339.74 270.704 339.46V332.56H273.264V343H270.704V341.26ZM279.482 343C278.602 343 277.929 342.773 277.462 342.32C277.009 341.853 276.782 341.193 276.782 340.34V334.6H275.242V332.56H276.042C276.429 332.56 276.689 332.473 276.822 332.3C276.969 332.113 277.042 331.84 277.042 331.48V329.7H279.342V332.56H281.482V334.6H279.342V340.96H281.322V343H279.482ZM287.845 343.24C287.071 343.24 286.378 343.113 285.765 342.86C285.165 342.593 284.651 342.227 284.225 341.76C283.811 341.28 283.491 340.707 283.265 340.04C283.038 339.36 282.925 338.6 282.925 337.76C282.925 336.933 283.031 336.187 283.245 335.52C283.471 334.853 283.791 334.287 284.205 333.82C284.618 333.34 285.125 332.973 285.725 332.72C286.325 332.453 287.005 332.32 287.765 332.32C288.578 332.32 289.285 332.46 289.885 332.74C290.485 333.02 290.978 333.4 291.365 333.88C291.751 334.36 292.038 334.92 292.225 335.56C292.425 336.187 292.525 336.86 292.525 337.58V338.42H285.585V338.68C285.585 339.44 285.798 340.053 286.225 340.52C286.651 340.973 287.285 341.2 288.125 341.2C288.765 341.2 289.285 341.067 289.685 340.8C290.098 340.533 290.465 340.193 290.785 339.78L292.165 341.32C291.738 341.92 291.151 342.393 290.405 342.74C289.671 343.073 288.818 343.24 287.845 343.24ZM287.805 334.24C287.125 334.24 286.585 334.467 286.185 334.92C285.785 335.373 285.585 335.96 285.585 336.68V336.84H289.865V336.66C289.865 335.94 289.685 335.36 289.325 334.92C288.978 334.467 288.471 334.24 287.805 334.24ZM307.183 343C306.623 343 306.177 342.84 305.843 342.52C305.523 342.187 305.323 341.747 305.243 341.2H305.123C304.95 341.88 304.597 342.393 304.063 342.74C303.53 343.073 302.87 343.24 302.083 343.24C301.017 343.24 300.197 342.96 299.623 342.4C299.05 341.84 298.763 341.093 298.763 340.16C298.763 339.08 299.15 338.28 299.923 337.76C300.697 337.227 301.797 336.96 303.223 336.96H305.003V336.2C305.003 335.613 304.85 335.16 304.543 334.84C304.237 334.52 303.743 334.36 303.063 334.36C302.463 334.36 301.977 334.493 301.603 334.76C301.243 335.013 300.937 335.32 300.683 335.68L299.163 334.32C299.55 333.72 300.063 333.24 300.703 332.88C301.343 332.507 302.19 332.32 303.243 332.32C304.657 332.32 305.73 332.64 306.463 333.28C307.197 333.92 307.563 334.84 307.563 336.04V340.96H308.603V343H307.183ZM302.943 341.38C303.517 341.38 304.003 341.253 304.403 341C304.803 340.747 305.003 340.373 305.003 339.88V338.5H303.363C302.03 338.5 301.363 338.927 301.363 339.78V340.12C301.363 340.547 301.497 340.867 301.763 341.08C302.043 341.28 302.437 341.38 302.943 341.38ZM314.795 343.24C314.022 343.24 313.335 343.113 312.735 342.86C312.135 342.607 311.629 342.24 311.215 341.76C310.815 341.28 310.509 340.707 310.295 340.04C310.082 339.36 309.975 338.6 309.975 337.76C309.975 336.92 310.082 336.167 310.295 335.5C310.509 334.833 310.815 334.267 311.215 333.8C311.629 333.32 312.135 332.953 312.735 332.7C313.335 332.447 314.022 332.32 314.795 332.32C315.849 332.32 316.715 332.553 317.395 333.02C318.089 333.487 318.589 334.133 318.895 334.96L316.795 335.9C316.675 335.46 316.449 335.1 316.115 334.82C315.795 334.527 315.355 334.38 314.795 334.38C314.075 334.38 313.535 334.607 313.175 335.06C312.829 335.513 312.655 336.107 312.655 336.84V338.74C312.655 339.473 312.829 340.067 313.175 340.52C313.535 340.96 314.075 341.18 314.795 341.18C315.409 341.18 315.882 341.027 316.215 340.72C316.549 340.4 316.809 340.007 316.995 339.54L318.955 340.48C318.609 341.4 318.082 342.093 317.375 342.56C316.669 343.013 315.809 343.24 314.795 343.24ZM324.189 343C323.309 343 322.636 342.773 322.169 342.32C321.716 341.853 321.489 341.193 321.489 340.34V334.6H319.949V332.56H320.749C321.136 332.56 321.396 332.473 321.529 332.3C321.676 332.113 321.749 331.84 321.749 331.48V329.7H324.049V332.56H326.189V334.6H324.049V340.96H326.029V343H324.189ZM329.69 331.04C329.156 331.04 328.77 330.92 328.53 330.68C328.303 330.44 328.19 330.133 328.19 329.76V329.36C328.19 328.987 328.303 328.68 328.53 328.44C328.77 328.2 329.156 328.08 329.69 328.08C330.21 328.08 330.59 328.2 330.83 328.44C331.07 328.68 331.19 328.987 331.19 329.36V329.76C331.19 330.133 331.07 330.44 330.83 330.68C330.59 330.92 330.21 331.04 329.69 331.04ZM328.41 332.56H330.97V343H328.41V332.56ZM338.077 343.24C337.33 343.24 336.657 343.113 336.057 342.86C335.47 342.607 334.964 342.24 334.537 341.76C334.124 341.28 333.804 340.707 333.577 340.04C333.35 339.36 333.237 338.6 333.237 337.76C333.237 336.92 333.35 336.167 333.577 335.5C333.804 334.833 334.124 334.267 334.537 333.8C334.964 333.32 335.47 332.953 336.057 332.7C336.657 332.447 337.33 332.32 338.077 332.32C338.824 332.32 339.497 332.447 340.097 332.7C340.697 332.953 341.204 333.32 341.617 333.8C342.044 334.267 342.37 334.833 342.597 335.5C342.824 336.167 342.937 336.92 342.937 337.76C342.937 338.6 342.824 339.36 342.597 340.04C342.37 340.707 342.044 341.28 341.617 341.76C341.204 342.24 340.697 342.607 340.097 342.86C339.497 343.113 338.824 343.24 338.077 343.24ZM338.077 341.18C338.757 341.18 339.29 340.973 339.677 340.56C340.064 340.147 340.257 339.54 340.257 338.74V336.8C340.257 336.013 340.064 335.413 339.677 335C339.29 334.587 338.757 334.38 338.077 334.38C337.41 334.38 336.884 334.587 336.497 335C336.11 335.413 335.917 336.013 335.917 336.8V338.74C335.917 339.54 336.11 340.147 336.497 340.56C336.884 340.973 337.41 341.18 338.077 341.18ZM345.207 343V332.56H347.767V334.3H347.867C348.08 333.74 348.413 333.273 348.867 332.9C349.333 332.513 349.973 332.32 350.787 332.32C351.867 332.32 352.693 332.673 353.267 333.38C353.84 334.087 354.127 335.093 354.127 336.4V343H351.567V336.66C351.567 335.913 351.433 335.353 351.167 334.98C350.9 334.607 350.46 334.42 349.847 334.42C349.58 334.42 349.32 334.46 349.067 334.54C348.827 334.607 348.607 334.713 348.407 334.86C348.22 334.993 348.067 335.167 347.947 335.38C347.827 335.58 347.767 335.82 347.767 336.1V343H345.207ZM360.384 343.24C359.384 343.24 358.544 343.073 357.864 342.74C357.184 342.393 356.584 341.92 356.064 341.32L357.624 339.8C358.011 340.24 358.431 340.587 358.884 340.84C359.351 341.093 359.884 341.22 360.484 341.22C361.098 341.22 361.538 341.113 361.804 340.9C362.084 340.687 362.224 340.393 362.224 340.02C362.224 339.713 362.124 339.473 361.924 339.3C361.738 339.113 361.411 338.987 360.944 338.92L359.904 338.78C358.771 338.633 357.904 338.313 357.304 337.82C356.718 337.313 356.424 336.58 356.424 335.62C356.424 335.113 356.518 334.66 356.704 334.26C356.891 333.847 357.158 333.5 357.504 333.22C357.851 332.927 358.264 332.707 358.744 332.56C359.238 332.4 359.784 332.32 360.384 332.32C360.891 332.32 361.338 332.36 361.724 332.44C362.124 332.507 362.484 332.613 362.804 332.76C363.124 332.893 363.418 333.067 363.684 333.28C363.951 333.48 364.211 333.707 364.464 333.96L362.964 335.46C362.658 335.14 362.291 334.873 361.864 334.66C361.438 334.447 360.971 334.34 360.464 334.34C359.904 334.34 359.498 334.44 359.244 334.64C359.004 334.84 358.884 335.1 358.884 335.42C358.884 335.767 358.984 336.033 359.184 336.22C359.398 336.393 359.751 336.52 360.244 336.6L361.304 336.74C363.558 337.06 364.684 338.087 364.684 339.82C364.684 340.327 364.578 340.793 364.364 341.22C364.164 341.633 363.878 341.993 363.504 342.3C363.131 342.593 362.678 342.827 362.144 343C361.624 343.16 361.038 343.24 360.384 343.24Z" fill="white"/>
<path d="M66.36 331.74V343H63.32V331.74H59.54V329.04H70.14V331.74H66.36ZM72.0597 328.2H75.0197V334.28H75.1397C75.3264 333.733 75.653 333.26 76.1197 332.86C76.5864 332.46 77.233 332.26 78.0597 332.26C79.1397 332.26 79.953 332.62 80.4997 333.34C81.0597 334.06 81.3397 335.087 81.3397 336.42V343H78.3797V336.66C78.3797 335.98 78.273 335.48 78.0597 335.16C77.8464 334.827 77.4664 334.66 76.9197 334.66C76.6797 334.66 76.4464 334.693 76.2197 334.76C75.993 334.813 75.7864 334.907 75.5997 335.04C75.4264 335.173 75.2864 335.34 75.1797 335.54C75.073 335.727 75.0197 335.947 75.0197 336.2V343H72.0597V328.2ZM88.3538 343.24C87.5538 343.24 86.8404 343.113 86.2138 342.86C85.5871 342.593 85.0538 342.227 84.6138 341.76C84.1871 341.28 83.8604 340.7 83.6338 340.02C83.4204 339.34 83.3138 338.58 83.3138 337.74C83.3138 336.913 83.4204 336.167 83.6338 335.5C83.8471 334.82 84.1604 334.24 84.5738 333.76C85.0004 333.28 85.5204 332.913 86.1338 332.66C86.7471 332.393 87.4471 332.26 88.2338 332.26C89.1004 332.26 89.8404 332.407 90.4538 332.7C91.0804 332.993 91.5871 333.387 91.9738 333.88C92.3738 334.373 92.6604 334.947 92.8338 335.6C93.0204 336.24 93.1138 336.913 93.1138 337.62V338.5H86.3738V338.66C86.3738 339.353 86.5604 339.907 86.9338 340.32C87.3071 340.72 87.8938 340.92 88.6938 340.92C89.3071 340.92 89.8071 340.8 90.1938 340.56C90.5804 340.307 90.9404 340.007 91.2738 339.66L92.7538 341.5C92.2871 342.047 91.6738 342.473 90.9138 342.78C90.1671 343.087 89.3138 343.24 88.3538 343.24ZM88.2938 334.44C87.6938 334.44 87.2204 334.64 86.8738 335.04C86.5404 335.427 86.3738 335.947 86.3738 336.6V336.76H90.0538V336.58C90.0538 335.94 89.9071 335.427 89.6138 335.04C89.3338 334.64 88.8938 334.44 88.2938 334.44ZM95.2042 343V332.5H98.1642V334.28H98.2842C98.4709 333.733 98.7976 333.26 99.2642 332.86C99.7309 332.46 100.378 332.26 101.204 332.26C102.284 332.26 103.098 332.62 103.644 333.34C104.204 334.06 104.484 335.087 104.484 336.42V343H101.524V336.66C101.524 335.98 101.418 335.48 101.204 335.16C100.991 334.827 100.611 334.66 100.064 334.66C99.8242 334.66 99.5909 334.693 99.3642 334.76C99.1376 334.813 98.9309 334.907 98.7442 335.04C98.5709 335.173 98.4309 335.34 98.3242 335.54C98.2176 335.727 98.1642 335.947 98.1642 336.2V343H95.2042Z" fill="white"/>
<rect width="48" height="48" transform="translate(269 216)" fill="#CFDBE8"/>
<path d="M291 228V244L284 237L281.16 239.84L293 251.68L304.84 239.84L302 237L295 244V228H291ZM293 260C290.374 260 287.773 259.483 285.346 258.478C282.92 257.472 280.715 255.999 278.858 254.142C275.107 250.391 273 245.304 273 240C273 234.696 275.107 229.609 278.858 225.858C282.609 222.107 287.696 220 293 220C295.626 220 298.227 220.517 300.654 221.522C303.08 222.528 305.285 224.001 307.142 225.858C308.999 227.715 310.473 229.92 311.478 232.346C312.483 234.773 313 237.374 313 240C313 245.304 310.893 250.391 307.142 254.142C303.391 257.893 298.304 260 293 260Z" fill="black"/>
<defs>
<linearGradient id="paint0_linear" x1="291" y1="164" x2="291" y2="316" gradientUnits="userSpaceOnUse">
<stop stop-color="#D9D2F7"/>
<stop offset="0.40625" stop-color="#A6C4C4"/>
<stop offset="0.625" stop-color="#A8C4C6"/>
<stop offset="1" stop-color="#34A853"/>
</linearGradient>
</defs>
</svg>
